<?xml version="1.0" encoding="utf-8"?>
<!-- Generator: Adobe Illustrator 25.1.0, SVG Export Plug-In . SVG Version: 6.00 Build 0)  -->
<svg version="1.1" id="Capa_1" xmlns="http://www.w3.org/2000/svg" xmlns:xlink="http://www.w3.org/1999/xlink" x="0px" y="0px"
	 viewBox="0 0 512 512" style="enable-background:new 0 0 512 512;" xml:space="preserve">
<style type="text/css">
	.st0{fill:#FC8063;}
	.st1{fill:#76D3F4;}
	.st2{opacity:0.1;fill:#5B5123;enable-background:new    ;}
	.st3{opacity:5.000000e-02;enable-background:new    ;}
	.st4{fill:#FAE5AA;}
	.st5{opacity:0.1;}
	.st6{fill:#4A5058;}
</style>
<path class="st0" d="M244.6,495.8c-1.7,0-3.5-0.6-4.9-1.8c-3.1-2.7-3.5-7.4-0.8-10.6c13.7-16,13.3-36.5,11.8-50.5
	c-0.4-4.1,2.6-7.8,6.7-8.2c4.1-0.4,7.8,2.6,8.2,6.7c1.8,16.8,2.1,41.5-15.3,61.8C248.8,494.9,246.7,495.8,244.6,495.8z"/>
<path class="st1" d="M425,350.5l13.6-12.4c8.6-7.9,8.6-21.4,0-29.3L425,296.4c-22.5-20.5-53.1-29.6-83.1-24.7l0,0
	c-25.3,4.2-43.9,26-43.9,51.7l0,0c0,25.7,18.6,47.6,43.9,51.7l0,0C372,380.1,402.6,371,425,350.5z"/>
<path class="st2" d="M425,350.5l13.6-12.4c8.6-7.9,8.6-21.4,0-29.3L425,296.4c-22.5-20.5-53.1-29.6-83.1-24.7l0,0
	c-25.3,4.2-43.9,26-43.9,51.7l0,0c0,25.7,18.6,47.6,43.9,51.7l0,0C372,380.1,402.6,371,425,350.5z"/>
<path class="st3" d="M362,280.6l-3.7-10.2c-5.4,0-10.9,0.4-16.3,1.3l0,0c-25.3,4.2-43.9,26-43.9,51.7s18.6,47.6,43.9,51.7l0,0
	c4.9,0.8,9.8,1.2,14.7,1.3C371,347.6,373.9,313.2,362,280.6z"/>
<path class="st1" d="M254.7,251c-69.9,25.4-113,91.9-112.2,162.3c0.1,9.7-5.3,18.6-14,22.9l-72.3,36.6c-9.3,4.7-14.1,15.6-10.7,25.5
	c3.8,10.8,15.7,16.4,26.4,12.5L274.7,437c63.3-23.1,96-93.1,72.9-156.4l-20.4-56L254.7,251z"/>
<path class="st4" d="M80,356.8l-13.6-12.4c-8.6-7.9-8.6-21.4,0-29.3L80,302.8c22.5-20.5,53.1-29.6,83.1-24.7l0,0
	c25.3,4.2,43.9,26,43.9,51.7l0,0c0,25.7-18.6,47.6-43.9,51.7l0,0C133.1,386.4,102.4,377.3,80,356.8z"/>
<path class="st1" d="M80,356.8l-13.6-12.4c-8.6-7.9-8.6-21.4,0-29.3L80,302.8c22.5-20.5,53.1-29.6,83.1-24.7l0,0
	c25.3,4.2,43.9,26,43.9,51.7l0,0c0,25.7-18.6,47.6-43.9,51.7l0,0C133.1,386.4,102.4,377.3,80,356.8z"/>
<path class="st3" d="M347.7,280.6l-20.4-56L254.7,251c-24.9,9.1-46.4,23.3-63.7,41.1c-7.5-7.2-17.1-12.3-28-14.1l0,0
	c-11.8-1.9-23.7-1.7-35.2,0.6c27.6,53.3,87.7,90.3,157.3,90.3c22.8,0,44.7-4,64.6-11.2C357.2,333.3,357.1,306.4,347.7,280.6z"/>
<path class="st1" d="M289.1,67.3c-3.4,0-6.4-2.3-7.3-5.7c-5.5-22.5-28-40.2-51.1-40.2c-4.1,0-7.5-3.4-7.5-7.5s3.4-7.5,7.5-7.5
	c29.8,0,58.6,22.7,65.7,51.6c1,4-1.5,8.1-5.5,9.1C290.3,67.2,289.7,67.3,289.1,67.3z"/>
<ellipse class="st1" cx="293.9" cy="193.3" rx="173.5" ry="156.4"/>
<path class="st3" d="M449.4,123.7c6.3,16.2,9.7,33.5,9.7,51.6c0,86.4-77.7,156.4-173.5,156.4c-68.1,0-127-35.4-155.4-86.8
	c23.7,61,88.1,104.8,163.8,104.8c95.8,0,173.5-70,173.5-156.4C467.4,168.3,460.9,144.6,449.4,123.7z"/>
<g>
	<path class="st0" d="M366,240.9h-36.2c-10,0-18-8.1-18-18v-21c0-17.2,16.1-29.8,32.8-25.7l0,0c17.7,4.3,32.8,16.1,41.2,32.2l0,0
		C393.5,223.1,382.7,240.9,366,240.9z"/>
	<path class="st0" d="M199.8,506.1c-1.7,0-3.5-0.6-4.9-1.8c-3.1-2.7-3.5-7.4-0.8-10.6c13.7-16,13.3-36.5,11.8-50.5
		c-0.4-4.1,2.6-7.8,6.7-8.2c4.1-0.4,7.8,2.6,8.2,6.7c1.8,16.8,2.1,41.5-15.3,61.8C204,505.2,201.9,506.1,199.8,506.1z"/>
</g>
<g class="st5">
	<path d="M239,397.4c-0.8,0-1.7-0.1-2.5-0.4c-3.9-1.4-6-5.6-4.6-9.6l5.6-16c1.4-3.9,5.6-6,9.6-4.6c3.9,1.4,6,5.6,4.6,9.6l-5.6,16
		C245,395.5,242.1,397.4,239,397.4z"/>
	<path d="M263.4,420.1c-0.8,0-1.7-0.1-2.5-0.4c-3.9-1.4-6-5.6-4.6-9.6l5.6-16c1.4-3.9,5.6-6,9.6-4.6c3.9,1.4,6,5.6,4.6,9.6l-5.6,16
		C269.4,418.2,266.5,420.1,263.4,420.1z"/>
	<path d="M300.5,397.4c-0.8,0-1.7-0.1-2.5-0.4c-3.9-1.4-6-5.6-4.6-9.6l5.6-16c1.4-3.9,5.6-6,9.6-4.6c3.9,1.4,6,5.6,4.6,9.6l-5.6,16
		C306.5,395.5,303.6,397.4,300.5,397.4z"/>
</g>
<g>
	<path class="st6" d="M269,182.8c-4.1,0-7.5-3.4-7.5-7.5c0-6.4-5.2-11.7-11.7-11.7c-6.4,0-11.7,5.2-11.7,11.7c0,4.1-3.4,7.5-7.5,7.5
		s-7.5-3.4-7.5-7.5c0-14.7,12-26.7,26.7-26.7c14.7,0,26.7,12,26.7,26.7C276.5,179.5,273.1,182.8,269,182.8z"/>
	<path class="st6" d="M422.4,182.8c-4.1,0-7.5-3.4-7.5-7.5c0-6.4-5.2-11.7-11.7-11.7s-11.7,5.2-11.7,11.7c0,4.1-3.4,7.5-7.5,7.5
		s-7.5-3.4-7.5-7.5c0-14.7,12-26.7,26.7-26.7s26.7,12,26.7,26.7C429.9,179.5,426.5,182.8,422.4,182.8z"/>
</g>
</svg>
