<?xml version="1.0" encoding="utf-8"?>
<!-- Generator: Adobe Illustrator 25.1.0, SVG Export Plug-In . SVG Version: 6.00 Build 0)  -->
<svg version="1.1" id="Capa_1" xmlns="http://www.w3.org/2000/svg" xmlns:xlink="http://www.w3.org/1999/xlink" x="0px" y="0px"
	 viewBox="0 0 512 512" style="enable-background:new 0 0 512 512;" xml:space="preserve">
<style type="text/css">
	.st0{fill:#95D0F4;}
	.st1{fill:#C4E2FF;}
</style>
<g id="_x31_2_cloud">
	<path class="st0" d="M436.7,233.7c4.1-50.3-48.5-89-103.7-77.2c-11.2-44.4-56.1-77.6-109.9-77.6c-63.7,0-115.1,46.6-112.5,103.3
		c0,0-0.1,0-0.1,0C54.9,182.2,9.8,221.9,9.8,271c0,47.9,43,86.9,96.9,88.7v0.1h323.9c39.6,0,71.7-28.3,71.7-63.1
		C502.2,263.6,473.4,236.5,436.7,233.7z"/>
	<g>
		<g>
			<path class="st1" d="M436.7,233.7c4.1-50.3-48.5-89-103.7-77.2c-11.2-44.4-56.1-77.6-109.9-77.6c-17.8,0-34.6,3.6-49.6,10.1
				c3.8-0.3,7.6-0.5,11.4-0.5c53.8,0,98.7,33.2,109.9,77.6c55.2-11.8,107.7,27,103.7,77.2c36.7,2.8,65.5,29.9,65.5,62.9
				c0,22.6-13.5,42.4-33.7,53.5h0.2c39.6,0,71.7-28.3,71.7-63.1C502.2,263.6,473.4,236.5,436.7,233.7L436.7,233.7z"/>
		</g>
	</g>
</g>
</svg>
