<?xml version="1.0" encoding="utf-8"?>
<!-- Generator: Adobe Illustrator 25.1.0, SVG Export Plug-In . SVG Version: 6.00 Build 0)  -->
<svg version="1.1" id="Capa_1" xmlns="http://www.w3.org/2000/svg" xmlns:xlink="http://www.w3.org/1999/xlink" x="0px" y="0px"
	 viewBox="0 0 512 512" style="enable-background:new 0 0 512 512;" xml:space="preserve">
<style type="text/css">
	.st0{fill:#D8ECFE;}
	.st1{fill:#C4E2FF;}
</style>
<g id="_x31_2_cloud">
	<path class="st0" d="M429.2,248.8c3.9-45.4-46.5-80.5-99.3-69.8c-10.7-40.1-53.8-70.1-105.3-70.1c-61.1,0-110.3,42.2-107.8,93.3
		c0,0-0.1,0-0.1,0c-53.4,0-96.6,35.9-96.6,80.3c0,43.3,41.3,78.6,92.9,80.2v0.1h310.4c37.9,0,68.7-25.6,68.7-57.1
		C492,275.8,464.4,251.3,429.2,248.8z"/>
	<g>
		<g>
			<path class="st1" d="M429.2,248.8c3.9-45.4-46.5-80.5-99.3-69.8c-10.7-40.1-53.8-70.1-105.3-70.1c-17.1,0-33.2,3.3-47.5,9.1
				c3.6-0.3,7.2-0.5,10.9-0.5c51.5,0,94.6,30,105.3,70.1c52.9-10.7,103.2,24.4,99.3,69.8c35.2,2.5,62.8,27,62.8,56.9
				c0,20.4-12.9,38.3-32.3,48.4h0.2c37.9,0,68.7-25.6,68.7-57.1C492,275.8,464.4,251.3,429.2,248.8L429.2,248.8z"/>
		</g>
	</g>
</g>
</svg>
