<?xml version="1.0" encoding="utf-8"?>
<!-- Generator: Adobe Illustrator 25.1.0, SVG Export Plug-In . SVG Version: 6.00 Build 0)  -->
<svg version="1.1" id="Layer_1" xmlns="http://www.w3.org/2000/svg" xmlns:xlink="http://www.w3.org/1999/xlink" x="0px" y="0px"
	 viewBox="0 0 512 512" style="enable-background:new 0 0 512 512;" xml:space="preserve">
<style type="text/css">
	.st0{fill:#09A76D;}
	.st1{fill:#02905D;}
	.st2{fill:#57BE92;}
	.st3{fill:#22B37F;}
	.st4{fill:#97DA7B;}
	.st5{fill:#80D261;}
</style>
<g>
	<path class="st0" d="M223.5,454.9c0,0,43-192.9,130.5-192.9s130.5,192.9,130.5,192.9H223.5z"/>
	<path class="st1" d="M354,262c-5.3,0-10.5,0.7-15.5,2.1c77.1,20.7,115,190.8,115,190.8h30.9C484.5,454.9,441.5,262,354,262z"/>
	<path class="st2" d="M29.6,454.9c0,0,54.6-245.2,165.9-245.2s165.9,245.2,165.9,245.2H29.6z"/>
	<path class="st3" d="M195.5,209.7c-5.3,0-10.4,0.6-15.5,1.6c100.8,21.1,150.4,243.6,150.4,243.6h30.9
		C361.4,454.9,306.7,209.7,195.5,209.7L195.5,209.7z"/>
	<path class="st4" d="M68.3,336c6.5,5.9,13.1,11.6,21.1,15.1c17.8,7.7,38.7,2.9,55.8-6.2s31.9-22,48.6-31.8
		c16.7-9.8,36.8-16.4,55.4-11c8.8,2.6,16.6,7.6,24.8,11.8c13,6.7,28.8,11,42.5,8c-27.5-58.5-67.7-114.4-120.9-114.4
		C138.1,207.6,95.8,272.8,68.3,336L68.3,336z"/>
	<g>
		<path class="st5" d="M195.5,207.6c-5.3,0-10.4,0.6-15.5,1.6c44.5,9.3,79,57.9,103.7,109.2c10.6,4,22.2,5.9,32.6,3.6
			C288.9,263.6,248.6,207.6,195.5,207.6L195.5,207.6z"/>
	</g>
	<g>
		<path class="st4" d="M498.5,472.4c0,3-0.3,5.9-0.9,8.8H306.3c0-19.4,15.8-35.2,35.2-35.2c3.3,0,6.5,0.5,9.6,1.3
			c-0.3-2.1-0.5-4.3-0.5-6.6c0-24.9,20.2-45.1,45.1-45.1c21.6,0,39.6,15.1,44,35.3c4.6-1.6,9.6-2.5,14.7-2.5
			C478.8,428.5,498.5,448.2,498.5,472.4L498.5,472.4z"/>
		<path class="st5" d="M454.5,428.5c-5.2,0-10.1,0.9-14.7,2.5c-4.5-20.2-22.5-35.3-44-35.3c-5.4,0-10.6,1-15.5,2.7
			c11.1,4.1,20.2,12.4,25.3,23c2.4,5,7.8,7.9,13.4,7.3c2.5-0.3,5-0.3,7.6-0.1c22.6,1.5,40.6,20.4,41,43c0.1,3.3-0.2,6.5-0.9,9.6
			h30.9c0.6-2.8,0.9-5.8,0.9-8.8C498.5,448.2,478.8,428.5,454.5,428.5z"/>
		<path class="st4" d="M332.1,474.2c0,2.4-0.2,4.7-0.6,7H114.9c0-20,16.2-36.2,36.2-36.2c7,0,13.6,2,19.1,5.5
			c1.2-13,7.1-24.5,16.2-32.9c-11.2-3.3-19.3-13.7-19.3-25.9c0-14.9,12.1-27,27-27c14.9,0,27,12.1,27,27c0,4.4-1.1,8.6-3,12.3
			c1-0.1,2-0.1,3-0.1c21.6,0,40,13.4,47.5,32.3c6-3.2,12.9-5.1,20.3-5.1C312.8,431.1,332.1,450.4,332.1,474.2L332.1,474.2z"/>
		<g>
			<path class="st5" d="M190.3,391.7c0,3.4-0.6,6.7-1.8,9.7c-0.5,1.2,0.5,2.5,1.8,2.5h0c20,0,37.4,11.5,45.8,28.3
				c1.1,2.1,3.5,3,5.7,2.1c5-2.1,10.5-3.2,16.3-3.2c3,0,5.9,0.3,8.8,0.9c-8.4-16.7-25.7-28.1-45.7-28.1c-1,0-2,0-3,0.1
				c2.1-4.1,3.2-8.9,3-13.9c-0.8-14.4-13.2-25.8-27.6-25.4c-5.5,0.1-10.6,1.9-14.9,4.9C185.7,374.4,190.3,382.5,190.3,391.7
				L190.3,391.7z"/>
			<path class="st5" d="M289,431.1c-5.4,0-10.7,1-15.5,2.9c16.2,6.2,27.6,21.9,27.6,40.2c0,2.4-0.2,4.7-0.6,7h30.9
				c0.4-2.3,0.6-4.6,0.6-7C332.1,450.4,312.8,431.1,289,431.1L289,431.1z"/>
		</g>
		<path class="st4" d="M13.5,472.4c0,3,0.3,5.9,0.9,8.8h191.3c0-19.4-15.8-35.2-35.2-35.2c-3.3,0-6.5,0.5-9.6,1.3
			c0.3-2.1,0.5-4.3,0.5-6.6c0-24.9-20.2-45.1-45.1-45.1c-21.6,0-39.6,15.1-44,35.3c-4.6-1.6-9.6-2.5-14.7-2.5
			C33.2,428.5,13.5,448.2,13.5,472.4L13.5,472.4z"/>
		<path class="st5" d="M170.5,446c-3.3,0-6.5,0.5-9.6,1.3c0.3-2.1,0.5-4.3,0.5-6.6c0-24.9-20.2-45.1-45.1-45.1
			c-5.4,0-10.6,1-15.4,2.7c17.3,6.3,29.7,22.9,29.7,42.4v0.1c0,3.2,2.7,5.6,5.8,5.3c1.1-0.1,2.2-0.1,3.3-0.1
			c19.4,0,35.2,15.7,35.2,35.2h30.9C205.7,461.8,189.9,446,170.5,446L170.5,446z"/>
	</g>
</g>
</svg>
