<?xml version="1.0" encoding="utf-8"?>
<!-- Generator: Adobe Illustrator 25.1.0, SVG Export Plug-In . SVG Version: 6.00 Build 0)  -->
<svg version="1.1" id="Capa_1" xmlns="http://www.w3.org/2000/svg" xmlns:xlink="http://www.w3.org/1999/xlink" x="0px" y="0px"
	 viewBox="0 0 512 512" style="enable-background:new 0 0 512 512;" xml:space="preserve">
<style type="text/css">
	.st0{fill:#FFE3A4;}
	.st1{fill:#F49E73;}
	.st2{fill:#F27281;}
	.st3{fill:#464D59;}
</style>
<path class="st0" d="M416.4,311.1l64.8-44.3c7.6-5.2,7.6-16.4,0-21.6l-64.8-44.3c-6.3-4.3-9.4-11.9-8-19.4l14.5-77.2
	c1.7-9-6.2-17-15.3-15.3l-77.2,14.5c-7.5,1.4-15.1-1.7-19.4-8l-44.3-64.8c-5.2-7.6-16.4-7.6-21.6,0l-44.3,64.8
	c-4.3,6.3-11.9,9.4-19.4,8l-77.2-14.5c-9-1.7-17,6.2-15.3,15.3l14.5,77.2c1.4,7.5-1.7,15.1-8,19.4l-64.8,44.3
	c-7.6,5.2-7.6,16.4,0,21.6l64.8,44.3c6.3,4.3,9.4,11.9,8,19.4l-14.5,77.2c-1.7,9,6.2,17,15.3,15.3l77.2-14.5
	c7.5-1.4,15.1,1.7,19.4,8l44.3,64.8c5.2,7.6,16.4,7.6,21.6,0l44.3-64.8c4.3-6.3,11.9-9.4,19.4-8l77.2,14.5c9,1.7,17-6.2,15.3-15.3
	l-14.5-77.2C407,323,410.1,315.4,416.4,311.1z"/>
<circle class="st1" cx="260.3" cy="256" r="140.4"/>
<g>
	<ellipse class="st2" cx="184.4" cy="250.2" rx="23.5" ry="18.7"/>
	<ellipse class="st2" cx="311.6" cy="250.2" rx="23.5" ry="18.7"/>
</g>
<g>
	<path class="st3" d="M192.4,243.9c-4.1,0-7.5-3.4-7.5-7.5v-8.3c0-4.1,3.4-7.5,7.5-7.5s7.5,3.4,7.5,7.5v8.3
		C199.9,240.5,196.5,243.9,192.4,243.9z"/>
	<path class="st3" d="M292.3,243.9c-4.1,0-7.5-3.4-7.5-7.5v-8.3c0-4.1,3.4-7.5,7.5-7.5c4.1,0,7.5,3.4,7.5,7.5v8.3
		C299.8,240.5,296.4,243.9,292.3,243.9z"/>
	<path class="st3" d="M242.3,250.2c-7.2,0-14.1-3.1-18.8-8.6c-2.7-3.1-2.4-7.9,0.7-10.6c3.1-2.7,7.9-2.4,10.6,0.7
		c1.9,2.2,4.6,3.4,7.5,3.4s5.6-1.2,7.5-3.4c2.7-3.1,7.5-3.4,10.6-0.7c3.1,2.7,3.4,7.5,0.7,10.6C256.4,247.1,249.5,250.2,242.3,250.2
		z"/>
</g>
</svg>
